<?xml version="1.0" encoding="UTF-8" standalone="no"?>
<!DOCTYPE svg PUBLIC "-//W3C//DTD SVG 1.1//EN" "http://www.w3.org/Graphics/SVG/1.1/DTD/svg11.dtd">
<svg width="100%" height="100%" viewBox="0 0 3380 2932" version="1.1" xmlns="http://www.w3.org/2000/svg" xmlns:xlink="http://www.w3.org/1999/xlink" xml:space="preserve" xmlns:serif="http://www.serif.com/" style="fill-rule:evenodd;clip-rule:evenodd;stroke-linecap:round;stroke-linejoin:round;stroke-miterlimit:1.5;">
    <g transform="matrix(1,0,0,1,3.33333,1.33333)">
        <g>
            <g transform="matrix(1,0,0,1,-4776.28,-1398.49)">
                <path d="M5656.35,3633.39L5977.81,3633.39L5977.22,3537.88" style="fill:none;stroke:white;stroke-width:5px;stroke-dasharray:20,20,0,0;"/>
            </g>
            <g transform="matrix(-4.16667,0,0,4.16667,3319.59,-1149.56)">
                <text x="484.533px" y="386.809px" style="font-family:'ArialMT', 'Arial', sans-serif;font-size:36px;fill:white;">i</text>
            </g>
            <g transform="matrix(-1,0,0,1,8072.92,-553.024)">
                <path d="M6491.49,1344.96L6491.48,1441.29L6619.98,1441.29L6619.98,1537.6L6749.1,1537.6L6749.1,1633.8L6879.41,1633.66L6879.36,1730.1L7007.35,1730.37L7007.21,1827.06L7132.69,1827.06L7132.69,1922.51L7306.92,1921.8" style="fill:none;stroke:white;stroke-width:5px;"/>
            </g>
            <g transform="matrix(-0.97557,0,0,1,7699.72,-320.462)">
                <path d="M4439.24,1112.4L7892.53,1112.4" style="fill:none;stroke:white;stroke-width:5px;"/>
            </g>
            <g transform="matrix(-0.998081,0,0,1,7829.48,-1110.4)">
                <path d="M4464.79,1112.4L7844.54,1112.4" style="fill:none;stroke:white;stroke-width:5px;"/>
            </g>
            <g transform="matrix(-1,0,0,1,7901.52,-421.951)">
                <path d="M7062,1796.14L7062,1894.58L6932.37,1894.63L6931.6,1989.6L6809.08,1992.19L6807.55,2085.87L6679.57,2087.39L6679.1,2181.94L6551.33,2183.95L6550.81,2278.08L6420.28,2279.36L6420.28,2372.96" style="fill:none;stroke:white;stroke-width:5px;"/>
            </g>
            <g transform="matrix(-1,0,0,1,8057.34,554.029)">
                <path d="M7291.34,1682.53L7180.1,1680.87L7177.52,1798.17L7062,1796.14L7062,1894.58L6932.37,1894.63L6931.6,1989.6L6809.08,1992.19L6807.55,2085.87L6679.57,2087.39L6679.1,2181.94L6551.33,2183.95L6550.81,2278.08L6420.28,2279.36L6420.28,2372.96" style="fill:none;stroke:white;stroke-width:5px;stroke-dasharray:20,20,0,0;"/>
            </g>
            <g transform="matrix(-1,0,0,1.00296,7757.34,-323.757)">
                <path d="M4547.43,324.795L4547.43,1112.4" style="fill:none;stroke:white;stroke-width:5px;"/>
            </g>
            <g transform="matrix(-1,0,0,1,4766.75,-320.462)">
                <path d="M4547.43,324.795L4547.43,1112.4" style="fill:none;stroke:white;stroke-width:5px;"/>
            </g>
            <g transform="matrix(-2.12479,0,0,1,15123,-320.462)">
                <path d="M6420.28,2271.47L6165.89,2271.47" style="fill:none;stroke:white;stroke-width:5px;"/>
            </g>
            <g transform="matrix(-1,0,0,1,8417.86,-541.943)">
                <path d="M6439.01,2492.95L6764.3,2492.95L6764.73,2588.63L7023.97,2590.94L7023.97,2681.33" style="fill:none;stroke:white;stroke-width:5px;"/>
            </g>
            <g transform="matrix(-7.75969,0,0,1,55369.4,-320.462)">
                <path d="M6874.97,2459.85L7135.52,2459.85" style="fill:none;stroke:white;stroke-width:5px;"/>
            </g>
            <g transform="matrix(-7.75969,0,0,1,55369.4,467.14)">
                <path d="M6874.97,2459.85L7135.52,2459.85" style="fill:none;stroke:white;stroke-width:5px;"/>
            </g>
            <g transform="matrix(-1,0,-2.36212e-14,3.69787,7901.52,-3319.8)">
                <path d="M7135.52,1689.29L7135.52,1111.74" style="fill:none;stroke:white;stroke-width:5px;"/>
            </g>
            <g transform="matrix(-1,0,0,1.84156,8187.66,-1256.06)">
                <path d="M6165.89,2271.47L6165.89,1111.74" style="fill:none;stroke:white;stroke-width:5px;"/>
            </g>
            <g transform="matrix(-0.790267,-0.612762,0.612762,-0.790267,3469.07,8215.44)">
                <path d="M5701.03,3984.03L5701.03,4038.24L5617.62,3954.83L5701.03,3871.42L5701.03,3925.64L5937.88,3925.64L5937.88,3984.03L5701.03,3984.03Z" style="fill:none;stroke:white;stroke-width:5px;"/>
            </g>
            <g transform="matrix(0.755718,-0.654897,0.654897,0.755718,-5900.4,1771.14)">
                <path d="M5701.03,3984.03L5701.03,4038.24L5617.62,3954.83L5701.03,3871.42L5701.03,3925.64L5937.88,3925.64L5937.88,3984.03L5701.03,3984.03Z" style="fill:none;stroke:white;stroke-width:5px;"/>
            </g>
            <g transform="matrix(1,0,-8.91687e-17,1,-4778.04,-1338.24)">
                <path d="M5701.03,3984.03L5701.03,4038.24L5617.62,3954.83L5701.03,3871.42L5701.03,3925.64L5937.88,3925.64L5937.88,3984.03L5701.03,3984.03Z" style="fill:none;stroke:white;stroke-width:5px;"/>
            </g>
            <g transform="matrix(-1.04198,0,0,1.0698,8537.54,-404.717)">
                <rect x="5234.8" y="491.708" width="931.085" height="453.809" style="fill:none;stroke:white;stroke-width:5px;"/>
            </g>
            <g transform="matrix(-0.364672,0,0,1.47632,3524.24,1531.1)">
                <rect x="5234.8" y="491.708" width="931.085" height="453.809" style="fill:none;stroke:white;stroke-width:5px;"/>
            </g>
            <g transform="matrix(-0.364672,0,0,1.47632,3887.83,-604.606)">
                <rect x="5234.8" y="491.708" width="931.085" height="453.809" style="fill:none;stroke:white;stroke-width:5px;"/>
            </g>
            <g transform="matrix(-0.364672,0,0,1.47632,3899.83,1531.1)">
                <rect x="5234.8" y="491.708" width="931.085" height="453.809" style="fill:none;stroke:white;stroke-width:5px;stroke-dasharray:20,20,0,0;"/>
            </g>
            <g transform="matrix(-0.841387,0,0,0.859662,6909.89,-213.165)">
                <ellipse cx="6686.28" cy="723.104" rx="207.99" ry="203.568" style="fill:none;stroke:white;stroke-width:5px;"/>
            </g>
            <g transform="matrix(0.506033,0,0,0.506033,-118.003,2617.06)">
                <path d="M462.439,10.208C462.439,21.338 465.264,31.625 470.913,41.068C476.562,50.511 484.151,58.015 493.678,63.58C503.206,69.145 513.535,71.928 524.664,71.928C536.131,71.928 546.502,69.651 555.777,65.098C565.052,60.545 572.345,54.221 577.657,46.127C582.969,38.033 585.709,28.926 585.878,18.809L594.984,18.809C594.984,30.444 591.906,41.026 585.751,50.553C579.596,60.081 571.165,67.585 560.457,73.066C549.748,78.546 537.818,81.287 524.664,81.287C511.848,81.287 499.96,78.083 488.999,71.675C478.038,65.267 469.353,56.624 462.945,45.747C456.537,34.871 453.333,23.024 453.333,10.208L453.333,-31.275C453.333,-44.091 456.495,-55.938 462.819,-66.814C469.142,-77.691 477.743,-86.333 488.619,-92.741C499.496,-99.149 511.343,-102.353 524.159,-102.353C537.143,-102.353 548.99,-99.613 559.698,-94.133C570.406,-88.652 578.88,-81.148 585.119,-71.62C591.358,-62.093 594.478,-51.511 594.478,-39.875L585.372,-39.875C585.203,-49.993 582.421,-59.099 577.025,-67.194C571.628,-75.288 564.335,-81.612 555.145,-86.165C545.954,-90.718 535.626,-92.994 524.159,-92.994C513.029,-92.994 502.742,-90.212 493.299,-84.647C483.856,-79.082 476.351,-71.578 470.787,-62.135C465.222,-52.691 462.439,-42.405 462.439,-31.275L462.439,10.208Z" style="fill:white;fill-rule:nonzero;"/>
                <path d="M705.269,-98.559L715.134,-98.559L787.477,77.492L777.359,77.492L753.582,19.314L666.821,19.314L642.791,77.492L632.926,77.492L705.269,-98.559ZM670.615,10.208L749.788,10.208L710.075,-86.418L670.615,10.208Z" style="fill:white;fill-rule:nonzero;"/>
                <path d="M901.051,-6.739C886.717,-9.606 875.039,-12.768 866.017,-16.225C856.996,-19.682 849.913,-24.403 844.77,-30.39C839.627,-36.376 837.055,-44.091 837.055,-53.535C837.055,-63.315 839.627,-71.915 844.77,-79.335C849.913,-86.755 857.164,-92.488 866.523,-96.536C875.882,-100.583 886.717,-102.606 899.027,-102.606C910.831,-102.606 921.666,-100.119 931.531,-95.144C941.396,-90.17 949.195,-83.214 954.929,-74.276C960.662,-65.339 963.529,-55.137 963.529,-43.67L954.17,-43.67C954.17,-53.619 951.725,-62.388 946.834,-69.976C941.944,-77.565 935.283,-83.425 926.851,-87.556C918.42,-91.687 909.061,-93.753 898.774,-93.753C889.668,-93.753 881.152,-92.32 873.226,-89.453C865.301,-86.586 858.851,-82.202 853.876,-76.3C848.901,-70.398 846.414,-62.978 846.414,-54.04C846.414,-45.946 848.775,-39.496 853.497,-34.69C858.218,-29.884 864.373,-26.216 871.962,-23.687C879.55,-21.157 890.174,-18.459 903.833,-15.592C917.661,-12.726 928.411,-9.985 936.084,-7.372C943.757,-4.758 950.249,-0.415 955.561,5.655C960.873,11.726 963.529,20.242 963.529,31.203C963.529,42.164 960.62,51.397 954.802,58.901C948.984,66.405 941.269,72.012 931.657,75.722C922.045,79.432 911.59,81.287 900.292,81.287C886.295,81.287 873.985,78.673 863.361,73.445C852.738,68.218 844.601,60.84 838.952,51.312C833.303,41.785 830.478,30.866 830.478,18.556L839.837,18.556C839.837,29.348 842.24,38.791 847.046,46.886C851.852,54.98 858.808,61.262 867.915,65.73C877.021,70.199 887.813,72.433 900.292,72.433C915.806,72.433 928.664,68.724 938.866,61.304C949.069,53.884 954.17,43.766 954.17,30.95C954.17,22.181 951.978,15.436 947.593,10.714C943.209,5.993 937.686,2.578 931.025,0.47C924.364,-1.638 914.373,-4.041 901.051,-6.739Z" style="fill:white;fill-rule:nonzero;"/>
                <path d="M1155.52,-98.559L1155.52,-89.2L1088.99,-89.2L1088.99,77.492L1079.88,77.492L1079.88,-89.2L1013.36,-89.2L1013.36,-98.559L1155.52,-98.559Z" style="fill:white;fill-rule:nonzero;"/>
                <path d="M1271.62,-102.353C1284.77,-102.353 1296.91,-99.107 1308.04,-92.615C1319.17,-86.123 1327.98,-77.312 1334.48,-66.182C1340.97,-55.052 1344.21,-42.911 1344.21,-29.757L1344.21,8.691C1344.21,21.844 1340.97,33.985 1334.48,45.115C1327.98,56.245 1319.17,65.056 1308.04,71.548C1296.91,78.04 1284.77,81.287 1271.62,81.287C1258.47,81.287 1246.32,78.04 1235.19,71.548C1224.07,65.056 1215.25,56.245 1208.76,45.115C1202.27,33.985 1199.02,21.844 1199.02,8.691L1199.02,-29.757C1199.02,-42.911 1202.27,-55.052 1208.76,-66.182C1215.25,-77.312 1224.07,-86.123 1235.19,-92.615C1246.32,-99.107 1258.47,-102.353 1271.62,-102.353ZM1208.38,8.691C1208.38,20.158 1211.21,30.739 1216.86,40.436C1222.51,50.132 1230.18,57.805 1239.87,63.454C1249.57,69.103 1260.15,71.928 1271.62,71.928C1283.09,71.928 1293.67,69.103 1303.36,63.454C1313.06,57.805 1320.73,50.132 1326.38,40.436C1332.03,30.739 1334.86,20.158 1334.86,8.691L1334.86,-29.757C1334.86,-41.224 1332.03,-51.806 1326.38,-61.502C1320.73,-71.199 1313.06,-78.871 1303.36,-84.521C1293.67,-90.17 1283.09,-92.994 1271.62,-92.994C1260.15,-92.994 1249.57,-90.17 1239.87,-84.521C1230.18,-78.871 1222.51,-71.199 1216.86,-61.502C1211.21,-51.806 1208.38,-41.224 1208.38,-29.757L1208.38,8.691Z" style="fill:white;fill-rule:nonzero;"/>
                <path d="M1497,-92.741C1507.11,-88.02 1515.08,-81.022 1520.9,-71.747C1526.72,-62.472 1529.63,-52.185 1529.63,-40.887C1529.63,-27.734 1525.62,-15.972 1517.61,-5.601C1509.6,4.77 1499.36,11.642 1486.88,15.014L1531.65,77.492L1520.52,77.492L1477.27,16.785L1469.17,17.038L1405.68,17.038L1405.68,77.492L1396.32,77.492L1396.32,-98.559L1463.35,-98.559C1470.77,-98.559 1477.14,-98.095 1482.45,-97.168C1487.76,-96.241 1492.61,-94.765 1497,-92.741ZM1471.7,7.679C1480.47,7.679 1488.56,5.487 1495.98,1.102C1503.4,-3.282 1509.31,-9.184 1513.69,-16.604C1518.08,-24.024 1520.27,-32.118 1520.27,-40.887C1520.27,-50.668 1517.69,-59.521 1512.55,-67.447C1507.41,-75.372 1500.28,-81.274 1491.18,-85.153C1484.6,-87.851 1475.33,-89.2 1463.35,-89.2L1405.68,-89.2L1405.68,7.679L1471.7,7.679Z" style="fill:white;fill-rule:nonzero;"/>
            </g>
            <g transform="matrix(0.506033,0,0,0.506033,-114.867,2460.1)">
                <path d="M620.279,-6.739C605.945,-9.606 594.267,-12.768 585.245,-16.225C576.224,-19.682 569.141,-24.403 563.998,-30.39C558.855,-36.376 556.283,-44.091 556.283,-53.535C556.283,-63.315 558.855,-71.915 563.998,-79.335C569.141,-86.755 576.392,-92.488 585.751,-96.536C595.11,-100.583 605.945,-102.606 618.255,-102.606C630.059,-102.606 640.894,-100.119 650.759,-95.144C660.624,-90.17 668.423,-83.214 674.157,-74.276C679.89,-65.339 682.757,-55.137 682.757,-43.67L673.398,-43.67C673.398,-53.619 670.953,-62.388 666.062,-69.976C661.172,-77.565 654.511,-83.425 646.079,-87.556C637.648,-91.687 628.289,-93.753 618.002,-93.753C608.896,-93.753 600.38,-92.32 592.454,-89.453C584.529,-86.586 578.079,-82.202 573.104,-76.3C568.129,-70.398 565.642,-62.978 565.642,-54.04C565.642,-45.946 568.003,-39.496 572.725,-34.69C577.446,-29.884 583.601,-26.216 591.19,-23.687C598.778,-21.157 609.402,-18.459 623.061,-15.592C636.889,-12.726 647.639,-9.985 655.312,-7.372C662.985,-4.758 669.477,-0.415 674.789,5.655C680.101,11.726 682.757,20.242 682.757,31.203C682.757,42.164 679.848,51.397 674.03,58.901C668.212,66.405 660.497,72.012 650.885,75.722C641.273,79.432 630.818,81.287 619.52,81.287C605.523,81.287 593.213,78.673 582.589,73.445C571.966,68.218 563.829,60.84 558.18,51.312C552.531,41.785 549.706,30.866 549.706,18.556L559.065,18.556C559.065,29.348 561.468,38.791 566.274,46.886C571.08,54.98 578.036,61.262 587.143,65.73C596.249,70.199 607.041,72.433 619.52,72.433C635.034,72.433 647.892,68.724 658.094,61.304C668.297,53.884 673.398,43.766 673.398,30.95C673.398,22.181 671.206,15.436 666.821,10.714C662.437,5.993 656.914,2.578 650.253,0.47C643.592,-1.638 633.601,-4.041 620.279,-6.739Z" style="fill:white;fill-rule:nonzero;"/>
                <path d="M860.832,-98.559L860.832,-89.2L808.219,-89.2L808.219,68.133L860.832,68.133L860.832,77.492L746.753,77.492L746.753,68.133L799.113,68.133L799.113,-89.2L746.753,-89.2L746.753,-98.559L860.832,-98.559Z" style="fill:white;fill-rule:nonzero;"/>
                <path d="M1050.29,21.844C1050.29,32.636 1047.63,42.586 1042.32,51.692C1037.01,60.798 1029.8,68.007 1020.7,73.319C1011.59,78.631 1001.64,81.287 990.847,81.287C980.055,81.287 970.105,78.631 960.999,73.319C951.893,68.007 944.684,60.798 939.372,51.692C934.06,42.586 931.404,32.636 931.404,21.844L931.404,-42.658C931.404,-53.45 934.06,-63.399 939.372,-72.506C944.684,-81.612 951.893,-88.821 960.999,-94.133C970.105,-99.445 980.055,-102.1 990.847,-102.1C1001.64,-102.1 1011.59,-99.445 1020.7,-94.133C1029.8,-88.821 1037.01,-81.612 1042.32,-72.506C1047.63,-63.399 1050.29,-53.45 1050.29,-42.658L1050.29,21.844ZM940.511,21.844C940.511,27.577 941.607,33.48 943.799,39.55L1033.09,-69.47C1028.54,-76.553 1022.55,-82.202 1015.13,-86.418C1007.71,-90.634 999.616,-92.741 990.847,-92.741C981.741,-92.741 973.352,-90.507 965.679,-86.038C958.006,-81.57 951.893,-75.499 947.34,-67.826C942.787,-60.153 940.511,-51.764 940.511,-42.658L940.511,21.844ZM1041.18,-42.658C1041.18,-48.391 1040.09,-54.293 1037.89,-60.364L948.605,48.656C953.158,55.908 959.144,61.641 966.564,65.857C973.984,70.073 982.078,72.181 990.847,72.181C999.953,72.181 1008.34,69.904 1016.01,65.351C1023.69,60.798 1029.8,54.685 1034.35,47.012C1038.91,39.339 1041.18,30.95 1041.18,21.844L1041.18,-42.658Z" style="fill:white;fill-rule:nonzero;"/>
                <path d="M1173.48,68.133L1173.48,-66.435C1167.91,-57.835 1160.62,-51.005 1151.6,-45.946C1142.57,-40.887 1132.75,-38.358 1122.13,-38.358L1122.13,-47.464C1131.4,-47.464 1139.96,-49.782 1147.8,-54.42C1155.64,-59.057 1161.88,-65.297 1166.52,-73.138C1171.16,-80.979 1173.48,-89.537 1173.48,-98.812L1182.58,-98.812L1182.58,68.133L1235.7,68.133L1235.7,77.492L1120.36,77.492L1120.36,68.133L1173.48,68.133Z" style="fill:white;fill-rule:nonzero;"/>
                <path d="M1360.66,68.133L1360.66,-66.435C1355.09,-57.835 1347.8,-51.005 1338.78,-45.946C1329.76,-40.887 1319.93,-38.358 1309.31,-38.358L1309.31,-47.464C1318.58,-47.464 1327.14,-49.782 1334.98,-54.42C1342.82,-59.057 1349.06,-65.297 1353.7,-73.138C1358.34,-80.979 1360.66,-89.537 1360.66,-98.812L1369.76,-98.812L1369.76,68.133L1422.88,68.133L1422.88,77.492L1307.54,77.492L1307.54,68.133L1360.66,68.133Z" style="fill:white;fill-rule:nonzero;"/>
            </g>
            <g transform="matrix(0.321949,0,0,0.321949,334.572,415.325)">
                <path d="M142.687,-18.412C126.367,-21.676 113.071,-25.276 102.799,-29.212C92.527,-33.148 84.463,-38.524 78.607,-45.34C72.751,-52.156 69.823,-60.94 69.823,-71.692C69.823,-82.828 72.751,-92.62 78.607,-101.068C84.463,-109.516 92.719,-116.044 103.375,-120.652C114.031,-125.26 126.367,-127.564 140.383,-127.564C153.823,-127.564 166.159,-124.732 177.391,-119.068C188.623,-113.404 197.503,-105.484 204.031,-95.308C210.559,-85.132 213.823,-73.516 213.823,-60.46L203.167,-60.46C203.167,-71.788 200.383,-81.772 194.815,-90.412C189.247,-99.052 181.663,-105.724 172.063,-110.428C162.463,-115.132 151.807,-117.484 140.095,-117.484C129.727,-117.484 120.031,-115.852 111.007,-112.588C101.983,-109.324 94.639,-104.332 88.975,-97.612C83.311,-90.892 80.479,-82.444 80.479,-72.268C80.479,-63.052 83.167,-55.708 88.543,-50.236C93.919,-44.764 100.927,-40.588 109.567,-37.708C118.207,-34.828 130.303,-31.756 145.855,-28.492C161.599,-25.228 173.839,-22.108 182.575,-19.132C191.311,-16.156 198.703,-11.212 204.751,-4.3C210.799,2.612 213.823,12.308 213.823,24.788C213.823,37.268 210.511,47.78 203.887,56.324C197.263,64.868 188.479,71.252 177.535,75.476C166.591,79.7 154.687,81.812 141.823,81.812C125.887,81.812 111.871,78.836 99.775,72.884C87.679,66.932 78.415,58.532 71.983,47.684C65.551,36.836 62.335,24.404 62.335,10.388L72.991,10.388C72.991,22.676 75.727,33.428 81.199,42.644C86.671,51.86 94.591,59.012 104.959,64.1C115.327,69.188 127.615,71.732 141.823,71.732C159.487,71.732 174.127,67.508 185.743,59.06C197.359,50.612 203.167,39.092 203.167,24.5C203.167,14.516 200.671,6.836 195.679,1.46C190.687,-3.916 184.399,-7.804 176.815,-10.204C169.231,-12.604 157.855,-15.34 142.687,-18.412Z" style="fill:white;fill-rule:nonzero;"/>
                <path d="M346.015,-122.956L357.247,-122.956L439.615,77.492L428.095,77.492L401.023,11.252L302.239,11.252L274.879,77.492L263.647,77.492L346.015,-122.956ZM306.559,0.884L396.703,0.884L351.487,-109.132L306.559,0.884ZM319.231,-190.636C325.759,-190.636 331.327,-188.332 335.935,-183.724C340.543,-179.116 342.847,-173.548 342.847,-167.02C342.847,-160.492 340.543,-154.972 335.935,-150.46C331.327,-145.948 325.759,-143.692 319.231,-143.692C312.703,-143.692 307.183,-145.948 302.671,-150.46C298.159,-154.972 295.903,-160.492 295.903,-167.02C295.903,-173.548 298.159,-179.116 302.671,-183.724C307.183,-188.332 312.703,-190.636 319.231,-190.636ZM383.167,-143.692C376.639,-143.692 371.119,-145.948 366.607,-150.46C362.095,-154.972 359.839,-160.492 359.839,-167.02C359.839,-173.548 362.095,-179.116 366.607,-183.724C371.119,-188.332 376.639,-190.636 383.167,-190.636C389.695,-190.636 395.263,-188.332 399.871,-183.724C404.479,-179.116 406.783,-173.548 406.783,-167.02C406.783,-160.492 404.479,-154.972 399.871,-150.46C395.263,-145.948 389.695,-143.692 383.167,-143.692ZM319.231,-153.484C323.071,-153.484 326.287,-154.828 328.879,-157.516C331.471,-160.204 332.767,-163.372 332.767,-167.02C332.767,-170.86 331.471,-174.124 328.879,-176.812C326.287,-179.5 323.071,-180.844 319.231,-180.844C315.391,-180.844 312.175,-179.5 309.583,-176.812C306.991,-174.124 305.695,-170.86 305.695,-167.02C305.695,-163.372 307.039,-160.204 309.727,-157.516C312.415,-154.828 315.583,-153.484 319.231,-153.484ZM383.167,-180.844C379.327,-180.844 376.111,-179.5 373.519,-176.812C370.927,-174.124 369.631,-170.86 369.631,-167.02C369.631,-163.372 370.975,-160.204 373.663,-157.516C376.351,-154.828 379.519,-153.484 383.167,-153.484C387.007,-153.484 390.223,-154.828 392.815,-157.516C395.407,-160.204 396.703,-163.372 396.703,-167.02C396.703,-170.86 395.407,-174.124 392.815,-176.812C390.223,-179.5 387.007,-180.844 383.167,-180.844Z" style="fill:white;fill-rule:nonzero;"/>
                <path d="M487.423,77.492L487.423,-122.956L498.079,-122.956L498.079,-28.204L631.135,-28.204L631.135,-122.956L641.791,-122.956L641.791,77.492L631.135,77.492L631.135,-17.548L498.079,-17.548L498.079,77.492L487.423,77.492Z" style="fill:white;fill-rule:nonzero;"/>
                <path d="M713.503,-122.956L713.503,12.692L849.439,-122.956L864.415,-122.956L780.607,-39.436L864.127,77.492L851.455,77.492L773.119,-31.948L713.503,27.668L713.503,77.492L702.847,77.492L702.847,-122.956L713.503,-122.956Z" style="fill:white;fill-rule:nonzero;"/>
                <path d="M990.847,-127.276C1005.82,-127.276 1019.65,-123.58 1032.32,-116.188C1044.99,-108.796 1055.02,-98.764 1062.41,-86.092C1069.81,-73.42 1073.5,-59.596 1073.5,-44.62L1073.5,-0.844C1073.5,14.132 1069.81,27.956 1062.41,40.628C1055.02,53.3 1044.99,63.332 1032.32,70.724C1019.65,78.116 1005.82,81.812 990.847,81.812C975.871,81.812 962.047,78.116 949.375,70.724C936.703,63.332 926.671,53.3 919.279,40.628C911.887,27.956 908.191,14.132 908.191,-0.844L908.191,-44.62C908.191,-59.596 911.887,-73.42 919.279,-86.092C926.671,-98.764 936.703,-108.796 949.375,-116.188C962.047,-123.58 975.871,-127.276 990.847,-127.276ZM918.847,-0.844C918.847,12.212 922.063,24.26 928.495,35.3C934.927,46.34 943.663,55.076 954.703,61.508C965.743,67.94 977.791,71.156 990.847,71.156C1003.9,71.156 1015.95,67.94 1026.99,61.508C1038.03,55.076 1046.77,46.34 1053.2,35.3C1059.63,24.26 1062.85,12.212 1062.85,-0.844L1062.85,-44.62C1062.85,-57.676 1059.63,-69.724 1053.2,-80.764C1046.77,-91.804 1038.03,-100.54 1026.99,-106.972C1015.95,-113.404 1003.9,-116.62 990.847,-116.62C977.791,-116.62 965.743,-113.404 954.703,-106.972C943.663,-100.54 934.927,-91.804 928.495,-80.764C922.063,-69.724 918.847,-57.676 918.847,-44.62L918.847,-0.844ZM958.591,-190.636C965.119,-190.636 970.687,-188.332 975.295,-183.724C979.903,-179.116 982.207,-173.548 982.207,-167.02C982.207,-160.492 979.903,-154.972 975.295,-150.46C970.687,-145.948 965.119,-143.692 958.591,-143.692C952.063,-143.692 946.543,-145.948 942.031,-150.46C937.519,-154.972 935.263,-160.492 935.263,-167.02C935.263,-173.548 937.519,-179.116 942.031,-183.724C946.543,-188.332 952.063,-190.636 958.591,-190.636ZM1022.53,-143.692C1016,-143.692 1010.48,-145.948 1005.97,-150.46C1001.46,-154.972 999.199,-160.492 999.199,-167.02C999.199,-173.548 1001.46,-179.116 1005.97,-183.724C1010.48,-188.332 1016,-190.636 1022.53,-190.636C1029.06,-190.636 1034.62,-188.332 1039.23,-183.724C1043.84,-179.116 1046.14,-173.548 1046.14,-167.02C1046.14,-160.492 1043.84,-154.972 1039.23,-150.46C1034.62,-145.948 1029.06,-143.692 1022.53,-143.692ZM958.591,-153.484C962.431,-153.484 965.647,-154.828 968.239,-157.516C970.831,-160.204 972.127,-163.372 972.127,-167.02C972.127,-170.86 970.831,-174.124 968.239,-176.812C965.647,-179.5 962.431,-180.844 958.591,-180.844C954.751,-180.844 951.535,-179.5 948.943,-176.812C946.351,-174.124 945.055,-170.86 945.055,-167.02C945.055,-163.372 946.399,-160.204 949.087,-157.516C951.775,-154.828 954.943,-153.484 958.591,-153.484ZM1022.53,-180.844C1018.69,-180.844 1015.47,-179.5 1012.88,-176.812C1010.29,-174.124 1008.99,-170.86 1008.99,-167.02C1008.99,-163.372 1010.34,-160.204 1013.02,-157.516C1015.71,-154.828 1018.88,-153.484 1022.53,-153.484C1026.37,-153.484 1029.58,-154.828 1032.17,-157.516C1034.77,-160.204 1036.06,-163.372 1036.06,-167.02C1036.06,-170.86 1034.77,-174.124 1032.17,-176.812C1029.58,-179.5 1026.37,-180.844 1022.53,-180.844Z" style="fill:white;fill-rule:nonzero;"/>
                <path d="M1284.89,-122.956L1284.89,-112.3L1209.15,-112.3L1209.15,77.492L1198.78,77.492L1198.78,-112.3L1123.04,-112.3L1123.04,-122.956L1284.89,-122.956Z" style="fill:white;fill-rule:nonzero;"/>
                <path d="M1411.62,-122.956L1422.85,-122.956L1505.21,77.492L1493.69,77.492L1466.62,11.252L1367.84,11.252L1340.48,77.492L1329.25,77.492L1411.62,-122.956ZM1372.16,0.884L1462.3,0.884L1417.09,-109.132L1372.16,0.884Z" style="fill:white;fill-rule:nonzero;"/>
                <path d="M1568.29,77.492L1568.29,-122.956L1578.94,-122.956L1578.94,66.836L1718.62,66.836L1718.62,77.492L1568.29,77.492Z" style="fill:white;fill-rule:nonzero;"/>
                <path d="M1843.33,-127.276C1858.3,-127.276 1872.13,-123.58 1884.8,-116.188C1897.47,-108.796 1907.5,-98.764 1914.89,-86.092C1922.29,-73.42 1925.98,-59.596 1925.98,-44.62L1925.98,-0.844C1925.98,14.132 1922.29,27.956 1914.89,40.628C1907.5,53.3 1897.47,63.332 1884.8,70.724C1872.13,78.116 1858.3,81.812 1843.33,81.812C1828.35,81.812 1814.53,78.116 1801.86,70.724C1789.18,63.332 1779.15,53.3 1771.76,40.628C1764.37,27.956 1760.67,14.132 1760.67,-0.844L1760.67,-44.62C1760.67,-59.596 1764.37,-73.42 1771.76,-86.092C1779.15,-98.764 1789.18,-108.796 1801.86,-116.188C1814.53,-123.58 1828.35,-127.276 1843.33,-127.276ZM1771.33,-0.844C1771.33,12.212 1774.54,24.26 1780.98,35.3C1787.41,46.34 1796.14,55.076 1807.18,61.508C1818.22,67.94 1830.27,71.156 1843.33,71.156C1856.38,71.156 1868.43,67.94 1879.47,61.508C1890.51,55.076 1899.25,46.34 1905.68,35.3C1912.11,24.26 1915.33,12.212 1915.33,-0.844L1915.33,-44.62C1915.33,-57.676 1912.11,-69.724 1905.68,-80.764C1899.25,-91.804 1890.51,-100.54 1879.47,-106.972C1868.43,-113.404 1856.38,-116.62 1843.33,-116.62C1830.27,-116.62 1818.22,-113.404 1807.18,-106.972C1796.14,-100.54 1787.41,-91.804 1780.98,-80.764C1774.54,-69.724 1771.33,-57.676 1771.33,-44.62L1771.33,-0.844Z" style="fill:white;fill-rule:nonzero;"/>
            </g>
            <g transform="matrix(0.321949,0,0,0.321949,2284.71,429.958)">
                <path d="M-100.385,-122.956L-100.385,-112.3L-176.129,-112.3L-176.129,77.492L-186.497,77.492L-186.497,-112.3L-262.241,-112.3L-262.241,-122.956L-100.385,-122.956Z" style="fill:white;fill-rule:nonzero;"/>
                <path d="M96.895,-122.956L96.895,-112.3L36.991,-112.3L36.991,66.836L96.895,66.836L96.895,77.492L-32.993,77.492L-32.993,66.836L26.623,66.836L26.623,-112.3L-32.993,-112.3L-32.993,-122.956L96.895,-122.956Z" style="fill:white;fill-rule:nonzero;"/>
                <path d="M175.807,-122.956L316.927,-122.956L316.927,-112.3L186.463,-112.3L186.463,-31.084L299.935,-31.084L299.935,-20.428L186.463,-20.428L186.463,66.836L316.927,66.836L316.927,77.492L175.807,77.492L175.807,-122.956Z" style="fill:white;fill-rule:nonzero;"/>
                <path d="M538.975,-122.956L538.975,-112.3L463.231,-112.3L463.231,77.492L452.863,77.492L452.863,-112.3L377.119,-112.3L377.119,-122.956L538.975,-122.956Z" style="fill:white;fill-rule:nonzero;"/>
                <path d="M671.167,-127.276C686.143,-127.276 699.967,-123.58 712.639,-116.188C725.311,-108.796 735.343,-98.764 742.735,-86.092C750.127,-73.42 753.823,-59.596 753.823,-44.62L753.823,-0.844C753.823,14.132 750.127,27.956 742.735,40.628C735.343,53.3 725.311,63.332 712.639,70.724C699.967,78.116 686.143,81.812 671.167,81.812C656.191,81.812 642.367,78.116 629.695,70.724C617.023,63.332 606.991,53.3 599.599,40.628C592.207,27.956 588.511,14.132 588.511,-0.844L588.511,-44.62C588.511,-59.596 592.207,-73.42 599.599,-86.092C606.991,-98.764 617.023,-108.796 629.695,-116.188C642.367,-123.58 656.191,-127.276 671.167,-127.276ZM599.167,-0.844C599.167,12.212 602.383,24.26 608.815,35.3C615.247,46.34 623.983,55.076 635.023,61.508C646.063,67.94 658.111,71.156 671.167,71.156C684.223,71.156 696.271,67.94 707.311,61.508C718.351,55.076 727.087,46.34 733.519,35.3C739.951,24.26 743.167,12.212 743.167,-0.844L743.167,-44.62C743.167,-57.676 739.951,-69.724 733.519,-80.764C727.087,-91.804 718.351,-100.54 707.311,-106.972C696.271,-113.404 684.223,-116.62 671.167,-116.62C658.111,-116.62 646.063,-113.404 635.023,-106.972C623.983,-100.54 615.247,-91.804 608.815,-80.764C602.383,-69.724 599.167,-57.676 599.167,-44.62L599.167,-0.844Z" style="fill:white;fill-rule:nonzero;"/>
                <path d="M965.215,-122.956L965.215,-112.3L889.471,-112.3L889.471,77.492L879.103,77.492L879.103,-112.3L803.359,-112.3L803.359,-122.956L965.215,-122.956Z" style="fill:white;fill-rule:nonzero;"/>
                <path d="M1091.93,-122.956L1103.17,-122.956L1185.54,77.492L1174.02,77.492L1146.94,11.252L1048.16,11.252L1020.8,77.492L1009.57,77.492L1091.93,-122.956ZM1052.48,0.884L1142.62,0.884L1097.41,-109.132L1052.48,0.884Z" style="fill:white;fill-rule:nonzero;"/>
                <path d="M1248.61,77.492L1248.61,-122.956L1259.26,-122.956L1259.26,66.836L1398.94,66.836L1398.94,77.492L1248.61,77.492Z" style="fill:white;fill-rule:nonzero;"/>
                <path d="M1523.65,-127.276C1538.62,-127.276 1552.45,-123.58 1565.12,-116.188C1577.79,-108.796 1587.82,-98.764 1595.22,-86.092C1602.61,-73.42 1606.3,-59.596 1606.3,-44.62L1606.3,-0.844C1606.3,14.132 1602.61,27.956 1595.22,40.628C1587.82,53.3 1577.79,63.332 1565.12,70.724C1552.45,78.116 1538.62,81.812 1523.65,81.812C1508.67,81.812 1494.85,78.116 1482.17,70.724C1469.5,63.332 1459.47,53.3 1452.08,40.628C1444.69,27.956 1440.99,14.132 1440.99,-0.844L1440.99,-44.62C1440.99,-59.596 1444.69,-73.42 1452.08,-86.092C1459.47,-98.764 1469.5,-108.796 1482.17,-116.188C1494.85,-123.58 1508.67,-127.276 1523.65,-127.276ZM1451.65,-0.844C1451.65,12.212 1454.86,24.26 1461.3,35.3C1467.73,46.34 1476.46,55.076 1487.5,61.508C1498.54,67.94 1510.59,71.156 1523.65,71.156C1536.7,71.156 1548.75,67.94 1559.79,61.508C1570.83,55.076 1579.57,46.34 1586,35.3C1592.43,24.26 1595.65,12.212 1595.65,-0.844L1595.65,-44.62C1595.65,-57.676 1592.43,-69.724 1586,-80.764C1579.57,-91.804 1570.83,-100.54 1559.79,-106.972C1548.75,-113.404 1536.7,-116.62 1523.65,-116.62C1510.59,-116.62 1498.54,-113.404 1487.5,-106.972C1476.46,-100.54 1467.73,-91.804 1461.3,-80.764C1454.86,-69.724 1451.65,-57.676 1451.65,-44.62L1451.65,-0.844Z" style="fill:white;fill-rule:nonzero;"/>
                <rect x="1900.35" y="-27.34" width="99.072" height="10.656" style="fill:white;fill-rule:nonzero;"/>
                <path d="M2192.96,-21.868L2124.13,-90.988L2131.62,-98.476L2207.93,-21.868L2131.62,54.452L2124.13,46.964L2192.96,-21.868Z" style="fill:white;fill-rule:nonzero;"/>
            </g>
        </g>
    </g>
</svg>
