<?xml version="1.0" encoding="UTF-8" standalone="no"?>
<!DOCTYPE svg PUBLIC "-//W3C//DTD SVG 1.1//EN" "http://www.w3.org/Graphics/SVG/1.1/DTD/svg11.dtd">
<svg width="100%" height="100%" viewBox="0 0 100 135" version="1.1" xmlns="http://www.w3.org/2000/svg" xmlns:xlink="http://www.w3.org/1999/xlink" xml:space="preserve" xmlns:serif="http://www.serif.com/" style="fill-rule:evenodd;clip-rule:evenodd;stroke-linejoin:round;stroke-miterlimit:1.41421;">
    <g transform="matrix(1,0,0,1,-593.467,-1564.17)">
        <g transform="matrix(1,0,0,1.82924,0,0)">
            <g transform="matrix(1.12233,0,0,0.92624,414.952,284.775)">
                <g transform="matrix(1,0,0,0.662414,128.557,605.799)">
                    <path d="M86.5,68.5C80.4,68.5 74.6,70.2 69.7,73.1C69.1,72 68.6,71 67.9,70C64.1,64.1 62.1,57.2 62.1,49.8L62.1,46.5C62.1,41.7 63,37.1 64.8,32.1C65.3,30.7 65.6,29.2 65.6,27.7C65.6,20.7 59.9,15 52.9,15C45.9,15 40.2,20.7 40.2,27.7C40.2,29.2 40.5,30.7 41,32.1C42.9,37.1 43.7,41.7 43.7,46.5L43.7,49.8C43.7,57.1 41.7,64.1 37.9,70C33.2,77.3 30.5,87.8 30.5,98.9C30.5,111.1 33.7,122.3 39.2,129.7C41.7,133 45.7,134.9 49.9,134.9L56,134.9C60.2,134.9 64.2,132.9 66.7,129.7C67,129.3 67.3,128.9 67.5,128.5C72.9,132.3 79.5,134.6 86.6,134.6C104.8,134.6 119.6,119.8 119.6,101.5C119.6,83.2 104.7,68.5 86.5,68.5ZM86.5,130.7C70.5,130.7 57.5,117.7 57.5,101.6C57.5,85.6 70.5,72.5 86.5,72.5C102.5,72.5 115.5,85.5 115.5,101.6C115.5,117.6 102.5,130.7 86.5,130.7ZM52.9,19C57.7,19 61.6,22.9 61.6,27.7C61.6,28.7 61.4,29.8 61.1,30.7C59.7,34.5 58.8,38 58.4,41.6L47.4,41.6C47,38 46.1,34.5 44.7,30.7C44.3,29.7 44.2,28.7 44.2,27.7C44.2,22.9 48.1,19 52.9,19ZM63.4,127.4C61.7,129.7 58.9,131 55.9,131L49.8,131C46.8,131 44,129.6 42.3,127.4C37.4,120.8 34.4,110.2 34.4,99C34.4,88.7 36.9,78.9 41.2,72.2C45.1,66.2 47.2,59.2 47.6,51.9L58.2,51.9C58.5,59.2 60.7,66.2 64.6,72.2C65.2,73.2 65.8,74.3 66.4,75.4C58.6,81.5 53.5,90.9 53.5,101.6C53.5,111.3 57.7,120 64.4,126.1C64,126.5 63.7,126.9 63.4,127.4Z" style="fill:white;fill-rule:nonzero;"/>
                </g>
                <g transform="matrix(1,0,0,0.662414,128.557,605.799)">
                    <path d="M85.3,86.8C85.3,83.8 82.8,81.3 79.8,81.3C76.8,81.3 74.3,83.8 74.3,86.8C74.3,89.8 76.8,92.3 79.8,92.3C82.8,92.3 85.3,89.8 85.3,86.8ZM79.8,85.3C80.6,85.3 81.3,86 81.3,86.8C81.3,87.6 80.6,88.3 79.8,88.3C79,88.3 78.3,87.6 78.3,86.8C78.2,85.9 78.9,85.3 79.8,85.3Z" style="fill:white;fill-rule:nonzero;"/>
                </g>
                <g transform="matrix(1,0,0,0.662414,128.557,605.799)">
                    <path d="M93.2,81.3C90.2,81.3 87.7,83.8 87.7,86.8C87.7,89.8 90.2,92.3 93.2,92.3C96.2,92.3 98.7,89.8 98.7,86.8C98.8,83.7 96.3,81.3 93.2,81.3ZM93.2,88.3C92.4,88.3 91.7,87.6 91.7,86.8C91.7,86 92.4,85.3 93.2,85.3C94,85.3 94.7,86 94.7,86.8C94.8,87.6 94.1,88.3 93.2,88.3Z" style="fill:white;fill-rule:nonzero;"/>
                </g>
                <g transform="matrix(1,0,0,0.662414,121.856,614.013)">
                    <path d="M93.2,81.3C90.2,81.3 87.7,83.8 87.7,86.8C87.7,89.8 90.2,92.3 93.2,92.3C96.2,92.3 98.7,89.8 98.7,86.8C98.8,83.7 96.3,81.3 93.2,81.3ZM93.2,88.3C92.4,88.3 91.7,87.6 91.7,86.8C91.7,86 92.4,85.3 93.2,85.3C94,85.3 94.7,86 94.7,86.8C94.8,87.6 94.1,88.3 93.2,88.3Z" style="fill:white;fill-rule:nonzero;"/>
                </g>
            </g>
        </g>
    </g>
</svg>
