<?xml version="1.0" encoding="UTF-8" standalone="no"?>
<!DOCTYPE svg PUBLIC "-//W3C//DTD SVG 1.1//EN" "http://www.w3.org/Graphics/SVG/1.1/DTD/svg11.dtd">
<svg width="100%" height="100%" viewBox="0 0 100 100" version="1.1" xmlns="http://www.w3.org/2000/svg" xmlns:xlink="http://www.w3.org/1999/xlink" xml:space="preserve" xmlns:serif="http://www.serif.com/" style="fill-rule:evenodd;clip-rule:evenodd;stroke-linejoin:round;stroke-miterlimit:1.41421;">
    <g transform="matrix(1,0,0,1,-593.467,-1002.21)">
        <g transform="matrix(1,0,0,1.82924,0,0)">
            <g transform="matrix(1.51515,0,0,1.25042,-377.737,-189.194)">
                <g transform="matrix(1,0,0,0.662414,638.995,588.139)">
                    <path d="M35.001,53.164C33.442,53.164 31.979,52.557 30.877,51.455L18.543,39.122C16.27,36.848 16.27,33.148 18.543,30.875L30.877,18.541C33.151,16.267 36.852,16.267 39.124,18.541L51.457,30.875C52.559,31.976 53.166,33.44 53.166,34.998C53.166,36.556 52.559,38.021 51.457,39.122L39.124,51.455C38.022,52.557 36.559,53.164 35.001,53.164ZM35.001,18.834C34.02,18.834 33.038,19.208 32.291,19.955L19.957,32.289C18.463,33.783 18.463,36.214 19.957,37.708L32.291,50.041C33.737,51.488 36.262,51.489 37.71,50.041L50.043,37.708C50.767,36.984 51.166,36.021 51.166,34.998C51.166,33.975 50.767,33.012 50.043,32.289L50.043,32.289L37.71,19.955C36.963,19.208 35.981,18.834 35.001,18.834Z" style="fill:white;fill-rule:nonzero;"/>
                </g>
                <g transform="matrix(1,0,0,0.662414,638.995,588.139)">
                    <path d="M23.13,28.702C22.874,28.702 22.618,28.604 22.423,28.409L18.944,24.93C17.795,23.781 17.795,21.91 18.944,20.761L20.762,18.943C21.91,17.793 23.782,17.794 24.931,18.943L28.41,22.422C28.598,22.609 28.703,22.864 28.703,23.129C28.703,23.394 28.598,23.648 28.41,23.836L23.837,28.409C23.642,28.604 23.386,28.702 23.13,28.702ZM22.847,20.08C22.604,20.08 22.36,20.173 22.176,20.357L20.358,22.175C19.988,22.544 19.988,23.146 20.358,23.516L23.13,26.288L26.289,23.129L23.517,20.357C23.332,20.173 23.089,20.08 22.847,20.08Z" style="fill:white;fill-rule:nonzero;"/>
                    <g>
                        <path d="M20.561,21.563C20.305,21.563 20.049,21.465 19.854,21.27L14.143,15.558C13.752,15.167 13.752,14.535 14.143,14.144C14.533,13.753 15.166,13.753 15.557,14.144L21.268,19.855C21.658,20.246 21.658,20.879 21.268,21.27C21.072,21.465 20.816,21.563 20.561,21.563Z" style="fill:white;fill-rule:nonzero;"/>
                        <path d="M3,22.504C2.744,22.504 2.488,22.406 2.293,22.211C1.902,21.82 1.902,21.187 2.293,20.797L9.621,13.468C10.012,13.078 10.645,13.078 11.035,13.468C11.426,13.859 11.426,14.492 11.035,14.882L3.707,22.211C3.512,22.406 3.256,22.504 3,22.504Z" style="fill:white;fill-rule:nonzero;"/>
                        <path d="M14.174,11.331C13.918,11.331 13.662,11.233 13.467,11.038C13.076,10.647 13.076,10.014 13.467,9.624L20.795,2.295C21.186,1.904 21.818,1.904 22.209,2.295C22.6,2.686 22.6,3.318 22.209,3.709L14.881,11.038C14.686,11.233 14.43,11.331 14.174,11.331Z" style="fill:white;fill-rule:nonzero;"/>
                    </g>
                    <path d="M12.838,16.68C11.812,16.68 10.846,16.28 10.12,15.554C8.621,14.055 8.622,11.617 10.12,10.118C11.571,8.666 14.104,8.667 15.557,10.118C17.055,11.617 17.056,14.055 15.557,15.554C14.83,16.28 13.865,16.68 12.838,16.68ZM12.838,10.992C12.346,10.992 11.883,11.184 11.534,11.532C10.815,12.251 10.815,13.421 11.534,14.14C12.232,14.837 13.446,14.835 14.143,14.14C14.861,13.421 14.861,12.251 14.143,11.532C13.794,11.184 13.331,10.992 12.838,10.992ZM10.827,10.825L10.837,10.825L10.827,10.825Z" style="fill:white;fill-rule:nonzero;"/>
                </g>
                <g transform="matrix(1,0,0,0.662414,638.995,588.139)">
                    <path d="M47.154,51.917C46.366,51.917 45.626,51.61 45.069,51.053L41.591,47.574C41.403,47.387 41.298,47.132 41.298,46.867C41.298,46.602 41.403,46.348 41.591,46.16L46.164,41.587C46.555,41.197 47.188,41.197 47.578,41.587L51.057,45.066C52.206,46.216 52.206,48.086 51.057,49.235L49.239,51.053C48.683,51.61 47.942,51.917 47.154,51.917ZM43.712,46.867L46.483,49.639C46.843,49.997 47.466,49.997 47.825,49.639L49.643,47.821C50.012,47.452 50.012,46.85 49.643,46.48L46.871,43.708L43.712,46.867Z" style="fill:white;fill-rule:nonzero;"/>
                    <g>
                        <path d="M55.151,56.145C54.896,56.145 54.64,56.047 54.444,55.852L48.733,50.141C48.343,49.75 48.343,49.117 48.733,48.727C49.124,48.336 49.757,48.336 50.147,48.727L55.858,54.438C56.249,54.829 56.249,55.461 55.858,55.852C55.663,56.047 55.407,56.145 55.151,56.145Z" style="fill:white;fill-rule:nonzero;"/>
                        <path d="M59.672,56.821C59.416,56.821 59.16,56.723 58.965,56.528C58.574,56.137 58.574,55.504 58.965,55.114L66.293,47.786C66.684,47.395 67.316,47.395 67.707,47.786C68.098,48.176 68.098,48.809 67.707,49.2L60.379,56.528C60.184,56.723 59.928,56.821 59.672,56.821Z" style="fill:white;fill-rule:nonzero;"/>
                        <path d="M48.504,67.998C48.248,67.998 47.992,67.9 47.797,67.706C47.406,67.315 47.406,66.682 47.796,66.292L55.122,58.957C55.513,58.565 56.146,58.566 56.537,58.956C56.928,59.346 56.928,59.979 56.538,60.37L49.212,67.705C49.017,67.9 48.76,67.998 48.504,67.998Z" style="fill:white;fill-rule:nonzero;"/>
                    </g>
                    <path d="M57.162,61.004C56.136,61.004 55.17,60.604 54.444,59.878C52.946,58.379 52.945,55.941 54.444,54.442C55.942,52.944 58.381,52.943 59.881,54.441C61.38,55.941 61.379,58.379 59.881,59.878C59.154,60.604 58.189,61.004 57.162,61.004ZM59.174,59.171L59.184,59.171L59.174,59.171ZM57.162,55.317C56.69,55.317 56.218,55.497 55.858,55.856C55.14,56.575 55.14,57.745 55.858,58.464C56.557,59.161 57.771,59.16 58.467,58.464C59.186,57.745 59.186,56.575 58.467,55.856C58.107,55.497 57.635,55.317 57.162,55.317Z" style="fill:white;fill-rule:nonzero;"/>
                </g>
                <g transform="matrix(1,0,0,0.662414,638.995,588.139)">
                    <path d="M22.843,51.912C22.088,51.912 21.333,51.625 20.759,51.05L18.941,49.233C17.792,48.083 17.792,46.212 18.941,45.063L22.42,41.584C22.795,41.209 23.459,41.209 23.834,41.584L28.407,46.157C28.798,46.548 28.798,47.181 28.407,47.571L24.929,51.05C24.354,51.625 23.599,51.912 22.843,51.912ZM23.127,43.706L20.355,46.478C19.986,46.847 19.986,47.449 20.355,47.819L22.173,49.636C22.542,50.005 23.146,50.006 23.515,49.636L26.286,46.864L23.127,43.706ZM19.648,45.771L19.658,45.771L19.648,45.771Z" style="fill:white;fill-rule:nonzero;"/>
                    <g>
                        <path d="M14.85,56.145C14.594,56.145 14.338,56.047 14.143,55.852C13.752,55.461 13.752,54.829 14.143,54.438L19.854,48.727C20.244,48.336 20.877,48.336 21.268,48.727C21.658,49.117 21.658,49.75 21.268,50.141L15.557,55.852C15.361,56.047 15.105,56.145 14.85,56.145Z" style="fill:white;fill-rule:nonzero;"/>
                        <path d="M21.502,67.994C21.246,67.994 20.99,67.896 20.795,67.701L13.467,60.373C13.076,59.982 13.076,59.35 13.467,58.959C13.857,58.568 14.49,58.568 14.881,58.959L22.209,66.287C22.6,66.678 22.6,67.311 22.209,67.701C22.014,67.896 21.758,67.994 21.502,67.994Z" style="fill:white;fill-rule:nonzero;"/>
                        <path d="M10.328,56.821C10.072,56.821 9.816,56.723 9.621,56.528L2.293,49.2C1.902,48.809 1.902,48.176 2.293,47.786C2.684,47.395 3.316,47.395 3.707,47.786L11.035,55.114C11.426,55.504 11.426,56.137 11.035,56.528C10.84,56.723 10.584,56.821 10.328,56.821Z" style="fill:white;fill-rule:nonzero;"/>
                    </g>
                    <path d="M12.834,61C11.808,61 10.842,60.6 10.116,59.874C8.618,58.375 8.617,55.937 10.116,54.438C11.567,52.985 14.1,52.986 15.553,54.438C17.052,55.937 17.051,58.375 15.553,59.874C14.826,60.6 13.861,61 12.834,61ZM12.834,55.312C12.342,55.312 11.879,55.504 11.53,55.852C10.812,56.571 10.812,57.741 11.53,58.46C12.229,59.157 13.442,59.156 14.139,58.46C14.857,57.741 14.857,56.571 14.139,55.852C13.79,55.504 13.327,55.312 12.834,55.312Z" style="fill:white;fill-rule:nonzero;"/>
                </g>
                <g transform="matrix(1,0,0,0.662414,638.995,588.139)">
                    <path d="M46.873,28.705C46.617,28.705 46.361,28.607 46.166,28.412L41.594,23.839C41.203,23.448 41.203,22.815 41.594,22.425L45.072,18.946C46.186,17.832 48.129,17.832 49.242,18.946L51.06,20.764C52.209,21.913 52.209,23.783 51.06,24.933L47.58,28.412C47.385,28.607 47.129,28.705 46.873,28.705ZM43.715,23.132L46.873,26.291L49.646,23.519C50.015,23.149 50.015,22.547 49.646,22.178L47.828,20.36C47.469,20.002 46.846,20.002 46.486,20.36L43.715,23.132ZM50.353,24.226L50.362,24.226L50.353,24.226Z" style="fill:white;fill-rule:nonzero;"/>
                    <g>
                        <path d="M49.44,21.563C49.185,21.563 48.929,21.465 48.733,21.27C48.343,20.879 48.343,20.246 48.733,19.855L54.444,14.144C54.835,13.753 55.468,13.753 55.858,14.144C56.249,14.535 56.249,15.167 55.858,15.558L50.147,21.27C49.952,21.465 49.696,21.563 49.44,21.563Z" style="fill:white;fill-rule:nonzero;"/>
                        <path d="M55.827,11.331C55.571,11.331 55.315,11.233 55.12,11.038L47.792,3.709C47.401,3.318 47.401,2.686 47.792,2.295C48.183,1.904 48.815,1.904 49.206,2.295L56.534,9.624C56.925,10.014 56.925,10.647 56.534,11.038C56.339,11.233 56.083,11.331 55.827,11.331Z" style="fill:white;fill-rule:nonzero;"/>
                        <path d="M67,22.504C66.744,22.504 66.488,22.406 66.293,22.211L58.965,14.882C58.574,14.492 58.574,13.859 58.965,13.468C59.355,13.078 59.988,13.078 60.379,13.468L67.707,20.797C68.098,21.187 68.098,21.82 67.707,22.211C67.512,22.406 67.256,22.504 67,22.504Z" style="fill:white;fill-rule:nonzero;"/>
                    </g>
                    <path d="M57.166,16.684C56.14,16.684 55.174,16.284 54.448,15.558C52.95,14.06 52.949,11.621 54.448,10.122C55.9,8.669 58.433,8.67 59.885,10.122C61.384,11.621 61.383,14.06 59.885,15.558C59.158,16.284 58.193,16.684 57.166,16.684ZM57.166,10.996C56.674,10.996 56.211,11.188 55.862,11.536C55.144,12.255 55.144,13.425 55.862,14.144C56.561,14.841 57.774,14.839 58.471,14.144C59.189,13.425 59.189,12.255 58.471,11.536C58.122,11.188 57.659,10.996 57.166,10.996Z" style="fill:white;fill-rule:nonzero;"/>
                </g>
            </g>
        </g>
    </g>
</svg>
