<?xml version="1.0" encoding="UTF-8" standalone="no"?>
<!DOCTYPE svg PUBLIC "-//W3C//DTD SVG 1.1//EN" "http://www.w3.org/Graphics/SVG/1.1/DTD/svg11.dtd">
<svg width="100%" height="100%" viewBox="0 0 100 118" version="1.1" xmlns="http://www.w3.org/2000/svg" xmlns:xlink="http://www.w3.org/1999/xlink" xml:space="preserve" xmlns:serif="http://www.serif.com/" style="fill-rule:evenodd;clip-rule:evenodd;stroke-linejoin:round;stroke-miterlimit:1.41421;">
    <g transform="matrix(1,0,0,1,-593.467,-1183.17)">
        <g transform="matrix(1,0,0,1.82924,0,0)">
            <g transform="matrix(1.78571,0,0,0.976208,554.181,636.071)">
                <g>
                    <path d="M23,77L77,77C77.5,77 78,76.5 78,76L78,12C78,11.5 77.5,11 77,11L23,11C22.5,11 22,11.5 22,12L22,76C22,76.5 22.5,77 23,77ZM70,75L30,75L30,71L70,71L70,75ZM76,27L72,27L72,23L76,23L76,27ZM24,13L76,13L76,21L72,21L72,18C72,17.5 71.5,17 71,17L61,17C60.5,17 60,17.5 60,18L60,21L24,21L24,13ZM62,33L62,19L70,19L70,33L62,33ZM68,35L68,41L64,41L64,35L68,35ZM24,23L60,23L60,27L24,27L24,23ZM24,29L60,29L60,34C60,34.5 60.5,35 61,35L62,35L62,42C62,42.5 62.5,43 63,43L65,43L65,46C65,46.5 65.5,47 66,47C66.5,47 67,46.5 67,46L67,43L69,43C69.5,43 70,42.5 70,42L70,35L71,35C71.5,35 72,34.5 72,34L72,29L76,29L76,75L72,75L72,70C72,69.5 71.5,69 71,69L29,69C28.5,69 28,69.5 28,70L28,75L24,75L24,29ZM32,64C32,63.5 32.5,63 33,63L38,63C38.5,63 39,63.5 39,64C39,64.5 38.5,65 38,65L33,65C32.5,65 32,64.5 32,64ZM62,64C62,63.5 62.5,63 63,63L65,63L65,62C65,61.5 65.5,61 66,61C66.5,61 67,61.5 67,62L67,64C67,64.5 66.5,65 66,65L63,65C62.5,65 62,64.5 62,64ZM42,64C42,63.5 42.5,63 43,63L48,63C48.5,63 49,63.5 49,64C49,64.5 48.5,65 48,65L43,65C42.5,65 42,64.5 42,64ZM65,57L65,52C65,51.5 65.5,51 66,51C66.5,51 67,51.5 67,52L67,57C67,57.5 66.5,58 66,58C65.5,58 65,57.5 65,57ZM52,64C52,63.5 52.5,63 53,63L58,63C58.5,63 59,63.5 59,64C59,64.5 58.5,65 58,65L53,65C52.5,65 52,64.5 52,64Z" style="fill:white;fill-rule:nonzero;"/>
                </g>
            </g>
        </g>
    </g>
</svg>
