<?xml version="1.0" encoding="UTF-8" standalone="no"?>
<!DOCTYPE svg PUBLIC "-//W3C//DTD SVG 1.1//EN" "http://www.w3.org/Graphics/SVG/1.1/DTD/svg11.dtd">
<svg viewBox="0 0 980 980" version="1.1" xmlns="http://www.w3.org/2000/svg" xmlns:xlink="http://www.w3.org/1999/xlink" xml:space="preserve" xmlns:serif="http://www.serif.com/" style="fill-rule:evenodd;clip-rule:evenodd;stroke-linejoin:round;stroke-miterlimit:1.41421;">
    <path d="M490,0C760.438,0 980,219.562 980,490C980,760.438 760.438,980 490,980C219.562,980 0,760.438 0,490C0,219.562 219.562,0 490,0ZM822,733.966L583.589,504L491,581.261L398.411,504L160,733.966L822,733.966ZM618,477.579L854.047,271L854.047,706L618,477.579ZM366,477.579L129.953,271L129.953,706L366,477.579ZM820,246L160,246L490,526L820,246Z" style="fill:white;"/>
</svg>
