<?xml version="1.0" encoding="UTF-8" standalone="no"?>
<!DOCTYPE svg PUBLIC "-//W3C//DTD SVG 1.1//EN" "http://www.w3.org/Graphics/SVG/1.1/DTD/svg11.dtd">
<svg width="100%" height="100%" viewBox="0 0 240 240" version="1.1" xmlns="http://www.w3.org/2000/svg" xmlns:xlink="http://www.w3.org/1999/xlink" xml:space="preserve" xmlns:serif="http://www.serif.com/" style="fill-rule:evenodd;clip-rule:evenodd;stroke-linejoin:round;stroke-miterlimit:1.41421;">
    <path d="M120,0C186.23,0 240,53.77 240,120C240,186.23 186.23,240 120,240C53.77,240 0,186.23 0,120C0,53.77 53.77,0 120,0ZM100.043,144.407L155.685,94.195C158.127,92.028 155.151,90.971 151.909,92.937L83.236,136.262L53.573,127.003C47.168,125.042 47.122,120.64 55.012,117.475L170.602,72.904C175.881,70.507 180.976,74.172 178.961,82.253L159.276,175.016C157.901,181.607 153.919,183.184 148.4,180.139L118.414,157.985L104,172C102.326,173.628 101,175 98,175L100.042,144.411L100.04,144.41L100.042,144.408L100.042,144.407L100.043,144.407Z" style="fill:white;"/>
</svg>
